<svg id="visual" viewBox="0 0 775 1000" width="775" height="1000" xmlns="http://www.w3.org/2000/svg" xmlns:xlink="http://www.w3.org/1999/xlink" version="1.1"><path d="M0 553L18.5 542.8C37 532.7 74 512.3 110.8 511.5C147.7 510.7 184.3 529.3 221.2 540.8C258 552.3 295 556.7 332 556.3C369 556 406 551 443 553.8C480 556.7 517 567.3 553.8 570.3C590.7 573.3 627.3 568.7 664.2 561.5C701 554.3 738 544.7 756.5 539.8L775 535L775 1001L756.5 1001C738 1001 701 1001 664.2 1001C627.3 1001 590.7 1001 553.8 1001C517 1001 480 1001 443 1001C406 1001 369 1001 332 1001C295 1001 258 1001 221.2 1001C184.3 1001 147.7 1001 110.8 1001C74 1001 37 1001 18.5 1001L0 1001Z" fill="#ffc4d1"></path><path d="M0 632L18.5 625.5C37 619 74 606 110.8 603.7C147.7 601.3 184.3 609.7 221.2 614C258 618.3 295 618.7 332 624.5C369 630.3 406 641.7 443 647.2C480 652.7 517 652.3 553.8 646C590.7 639.7 627.3 627.3 664.2 628.5C701 629.7 738 644.3 756.5 651.7L775 659L775 1001L756.5 1001C738 1001 701 1001 664.2 1001C627.3 1001 590.7 1001 553.8 1001C517 1001 480 1001 443 1001C406 1001 369 1001 332 1001C295 1001 258 1001 221.2 1001C184.3 1001 147.7 1001 110.8 1001C74 1001 37 1001 18.5 1001L0 1001Z" fill="#ffb6c6"></path><path d="M0 716L18.5 711.5C37 707 74 698 110.8 692C147.7 686 184.3 683 221.2 687.5C258 692 295 704 332 705C369 706 406 696 443 689.5C480 683 517 680 553.8 682.7C590.7 685.3 627.3 693.7 664.2 703.3C701 713 738 724 756.5 729.5L775 735L775 1001L756.5 1001C738 1001 701 1001 664.2 1001C627.3 1001 590.7 1001 553.8 1001C517 1001 480 1001 443 1001C406 1001 369 1001 332 1001C295 1001 258 1001 221.2 1001C184.3 1001 147.7 1001 110.8 1001C74 1001 37 1001 18.5 1001L0 1001Z" fill="#ffa8ba"></path><path d="M0 797L18.5 795.2C37 793.3 74 789.7 110.8 794C147.7 798.3 184.3 810.7 221.2 809.5C258 808.3 295 793.7 332 793.3C369 793 406 807 443 810.3C480 813.7 517 806.3 553.8 797.2C590.7 788 627.3 777 664.2 775.8C701 774.7 738 783.3 756.5 787.7L775 792L775 1001L756.5 1001C738 1001 701 1001 664.2 1001C627.3 1001 590.7 1001 553.8 1001C517 1001 480 1001 443 1001C406 1001 369 1001 332 1001C295 1001 258 1001 221.2 1001C184.3 1001 147.7 1001 110.8 1001C74 1001 37 1001 18.5 1001L0 1001Z" fill="#ff9bb0"></path><path d="M0 901L18.5 898.8C37 896.7 74 892.3 110.8 888C147.7 883.7 184.3 879.3 221.2 874.7C258 870 295 865 332 870C369 875 406 890 443 896C480 902 517 899 553.8 895.8C590.7 892.7 627.3 889.3 664.2 883.2C701 877 738 868 756.5 863.5L775 859L775 1001L756.5 1001C738 1001 701 1001 664.2 1001C627.3 1001 590.7 1001 553.8 1001C517 1001 480 1001 443 1001C406 1001 369 1001 332 1001C295 1001 258 1001 221.2 1001C184.3 1001 147.7 1001 110.8 1001C74 1001 37 1001 18.5 1001L0 1001Z" fill="#ff8ea5"></path></svg>