<svg id="visual" viewBox="0 0 1920 1080" width="1920" height="1080" xmlns="http://www.w3.org/2000/svg" xmlns:xlink="http://www.w3.org/1999/xlink" version="1.1"><path d="M951 1080L962.8 1054.3C974.7 1028.7 998.3 977.3 997.5 925.8C996.7 874.3 971.3 822.7 984.3 771.2C997.3 719.7 1048.7 668.3 1071.2 617C1093.7 565.7 1087.3 514.3 1079.3 463C1071.3 411.7 1061.7 360.3 1046.5 308.8C1031.3 257.3 1010.7 205.7 1016 154.2C1021.3 102.7 1052.7 51.3 1068.3 25.7L1084 0L1920 0L1920 25.7C1920 51.3 1920 102.7 1920 154.2C1920 205.7 1920 257.3 1920 308.8C1920 360.3 1920 411.7 1920 463C1920 514.3 1920 565.7 1920 617C1920 668.3 1920 719.7 1920 771.2C1920 822.7 1920 874.3 1920 925.8C1920 977.3 1920 1028.7 1920 1054.3L1920 1080Z" fill="#ffc4d1"></path><path d="M1167 1080L1163.7 1054.3C1160.3 1028.7 1153.7 977.3 1170.5 925.8C1187.3 874.3 1227.7 822.7 1248.2 771.2C1268.7 719.7 1269.3 668.3 1255.5 617C1241.7 565.7 1213.3 514.3 1201.3 463C1189.3 411.7 1193.7 360.3 1205.8 308.8C1218 257.3 1238 205.7 1244 154.2C1250 102.7 1242 51.3 1238 25.7L1234 0L1920 0L1920 25.7C1920 51.3 1920 102.7 1920 154.2C1920 205.7 1920 257.3 1920 308.8C1920 360.3 1920 411.7 1920 463C1920 514.3 1920 565.7 1920 617C1920 668.3 1920 719.7 1920 771.2C1920 822.7 1920 874.3 1920 925.8C1920 977.3 1920 1028.7 1920 1054.3L1920 1080Z" fill="#ffb6c6"></path><path d="M1378 1080L1364.8 1054.3C1351.7 1028.7 1325.3 977.3 1331.5 925.8C1337.7 874.3 1376.3 822.7 1391.8 771.2C1407.3 719.7 1399.7 668.3 1393 617C1386.3 565.7 1380.7 514.3 1385.3 463C1390 411.7 1405 360.3 1401.3 308.8C1397.7 257.3 1375.3 205.7 1374.7 154.2C1374 102.7 1395 51.3 1405.5 25.7L1416 0L1920 0L1920 25.7C1920 51.3 1920 102.7 1920 154.2C1920 205.7 1920 257.3 1920 308.8C1920 360.3 1920 411.7 1920 463C1920 514.3 1920 565.7 1920 617C1920 668.3 1920 719.7 1920 771.2C1920 822.7 1920 874.3 1920 925.8C1920 977.3 1920 1028.7 1920 1054.3L1920 1080Z" fill="#ffa8ba"></path><path d="M1529 1080L1536.2 1054.3C1543.3 1028.7 1557.7 977.3 1553.3 925.8C1549 874.3 1526 822.7 1518.5 771.2C1511 719.7 1519 668.3 1516 617C1513 565.7 1499 514.3 1499.7 463C1500.3 411.7 1515.7 360.3 1523 308.8C1530.3 257.3 1529.7 205.7 1520 154.2C1510.3 102.7 1491.7 51.3 1482.3 25.7L1473 0L1920 0L1920 25.7C1920 51.3 1920 102.7 1920 154.2C1920 205.7 1920 257.3 1920 308.8C1920 360.3 1920 411.7 1920 463C1920 514.3 1920 565.7 1920 617C1920 668.3 1920 719.7 1920 771.2C1920 822.7 1920 874.3 1920 925.8C1920 977.3 1920 1028.7 1920 1054.3L1920 1080Z" fill="#ff9bb0"></path><path d="M1654 1080L1662.3 1054.3C1670.7 1028.7 1687.3 977.3 1688.2 925.8C1689 874.3 1674 822.7 1680 771.2C1686 719.7 1713 668.3 1724.7 617C1736.3 565.7 1732.7 514.3 1726.7 463C1720.7 411.7 1712.3 360.3 1714.5 308.8C1716.7 257.3 1729.3 205.7 1725 154.2C1720.7 102.7 1699.3 51.3 1688.7 25.7L1678 0L1920 0L1920 25.7C1920 51.3 1920 102.7 1920 154.2C1920 205.7 1920 257.3 1920 308.8C1920 360.3 1920 411.7 1920 463C1920 514.3 1920 565.7 1920 617C1920 668.3 1920 719.7 1920 771.2C1920 822.7 1920 874.3 1920 925.8C1920 977.3 1920 1028.7 1920 1054.3L1920 1080Z" fill="#ff8ea5"></path></svg>