<svg id="visual" viewBox="0 0 1920 1080" width="1920" height="1080" xmlns="http://www.w3.org/2000/svg" xmlns:xlink="http://www.w3.org/1999/xlink" version="1.1"><path d="M0 66L29.2 66C58.3 66 116.7 66 174.8 66C233 66 291 66 349.2 64.2C407.3 62.3 465.7 58.7 523.8 58.7C582 58.7 640 62.3 698.2 66C756.3 69.7 814.7 73.3 872.8 71.5C931 69.7 989 62.3 1047.2 58.7C1105.3 55 1163.7 55 1221.8 58.7C1280 62.3 1338 69.7 1396.2 73.3C1454.3 77 1512.7 77 1570.8 75.2C1629 73.3 1687 69.7 1745.2 69.7C1803.3 69.7 1861.7 73.3 1890.8 75.2L1920 77L1920 0L1890.8 0C1861.7 0 1803.3 0 1745.2 0C1687 0 1629 0 1570.8 0C1512.7 0 1454.3 0 1396.2 0C1338 0 1280 0 1221.8 0C1163.7 0 1105.3 0 1047.2 0C989 0 931 0 872.8 0C814.7 0 756.3 0 698.2 0C640 0 582 0 523.8 0C465.7 0 407.3 0 349.2 0C291 0 233 0 174.8 0C116.7 0 58.3 0 29.2 0L0 0Z" fill="#ffc4d1"></path><path d="M0 206L29.2 211.5C58.3 217 116.7 228 174.8 231.7C233 235.3 291 231.7 349.2 220.8C407.3 210 465.7 192 523.8 193.8C582 195.7 640 217.3 698.2 224.5C756.3 231.7 814.7 224.3 872.8 213.5C931 202.7 989 188.3 1047.2 184.7C1105.3 181 1163.7 188 1221.8 200.5C1280 213 1338 231 1396.2 238.3C1454.3 245.7 1512.7 242.3 1570.8 240.7C1629 239 1687 239 1745.2 239C1803.3 239 1861.7 239 1890.8 239L1920 239L1920 75L1890.8 73.2C1861.7 71.3 1803.3 67.7 1745.2 67.7C1687 67.7 1629 71.3 1570.8 73.2C1512.7 75 1454.3 75 1396.2 71.3C1338 67.7 1280 60.3 1221.8 56.7C1163.7 53 1105.3 53 1047.2 56.7C989 60.3 931 67.7 872.8 69.5C814.7 71.3 756.3 67.7 698.2 64C640 60.3 582 56.7 523.8 56.7C465.7 56.7 407.3 60.3 349.2 62.2C291 64 233 64 174.8 64C116.7 64 58.3 64 29.2 64L0 64Z" fill="#ffbccb"></path><path d="M0 271L29.2 280C58.3 289 116.7 307 174.8 314.2C233 321.3 291 317.7 349.2 305C407.3 292.3 465.7 270.7 523.8 272.5C582 274.3 640 299.7 698.2 305.2C756.3 310.7 814.7 296.3 872.8 285.5C931 274.7 989 267.3 1047.2 263.7C1105.3 260 1163.7 260 1221.8 270.8C1280 281.7 1338 303.3 1396.2 314.2C1454.3 325 1512.7 325 1570.8 321.3C1629 317.7 1687 310.3 1745.2 310.3C1803.3 310.3 1861.7 317.7 1890.8 321.3L1920 325L1920 237L1890.8 237C1861.7 237 1803.3 237 1745.2 237C1687 237 1629 237 1570.8 238.7C1512.7 240.3 1454.3 243.7 1396.2 236.3C1338 229 1280 211 1221.8 198.5C1163.7 186 1105.3 179 1047.2 182.7C989 186.3 931 200.7 872.8 211.5C814.7 222.3 756.3 229.7 698.2 222.5C640 215.3 582 193.7 523.8 191.8C465.7 190 407.3 208 349.2 218.8C291 229.7 233 233.3 174.8 229.7C116.7 226 58.3 215 29.2 209.5L0 204Z" fill="#ffb4c4"></path><path d="M0 519L29.2 524.5C58.3 530 116.7 541 174.8 548.3C233 555.7 291 559.3 349.2 559.3C407.3 559.3 465.7 555.7 523.8 555.7C582 555.7 640 559.3 698.2 559.3C756.3 559.3 814.7 555.7 872.8 552C931 548.3 989 544.7 1047.2 535.7C1105.3 526.7 1163.7 512.3 1221.8 519.5C1280 526.7 1338 555.3 1396.2 560.7C1454.3 566 1512.7 548 1570.8 551.7C1629 555.3 1687 580.7 1745.2 589.7C1803.3 598.7 1861.7 591.3 1890.8 587.7L1920 584L1920 323L1890.8 319.3C1861.7 315.7 1803.3 308.3 1745.2 308.3C1687 308.3 1629 315.7 1570.8 319.3C1512.7 323 1454.3 323 1396.2 312.2C1338 301.3 1280 279.7 1221.8 268.8C1163.7 258 1105.3 258 1047.2 261.7C989 265.3 931 272.7 872.8 283.5C814.7 294.3 756.3 308.7 698.2 303.2C640 297.7 582 272.3 523.8 270.5C465.7 268.7 407.3 290.3 349.2 303C291 315.7 233 319.3 174.8 312.2C116.7 305 58.3 287 29.2 278L0 269Z" fill="#ffacbd"></path><path d="M0 800L29.2 798.2C58.3 796.3 116.7 792.7 174.8 790.8C233 789 291 789 349.2 783.7C407.3 778.3 465.7 767.7 523.8 767.7C582 767.7 640 778.3 698.2 782C756.3 785.7 814.7 782.3 872.8 780.7C931 779 989 779 1047.2 780.7C1105.3 782.3 1163.7 785.7 1221.8 792.8C1280 800 1338 811 1396.2 809.3C1454.3 807.7 1512.7 793.3 1570.8 789.7C1629 786 1687 793 1745.2 794.7C1803.3 796.3 1861.7 792.7 1890.8 790.8L1920 789L1920 582L1890.8 585.7C1861.7 589.3 1803.3 596.7 1745.2 587.7C1687 578.7 1629 553.3 1570.8 549.7C1512.7 546 1454.3 564 1396.2 558.7C1338 553.3 1280 524.7 1221.8 517.5C1163.7 510.3 1105.3 524.7 1047.2 533.7C989 542.7 931 546.3 872.8 550C814.7 553.7 756.3 557.3 698.2 557.3C640 557.3 582 553.7 523.8 553.7C465.7 553.7 407.3 557.3 349.2 557.3C291 557.3 233 553.7 174.8 546.3C116.7 539 58.3 528 29.2 522.5L0 517Z" fill="#ffa4b7"></path><path d="M0 876L29.2 874.2C58.3 872.3 116.7 868.7 174.8 870.5C233 872.3 291 879.7 349.2 877.8C407.3 876 465.7 865 523.8 859.5C582 854 640 854 698.2 852.2C756.3 850.3 814.7 846.7 872.8 846.7C931 846.7 989 850.3 1047.2 857.7C1105.3 865 1163.7 876 1221.8 883.2C1280 890.3 1338 893.7 1396.2 890C1454.3 886.3 1512.7 875.7 1570.8 872.2C1629 868.7 1687 872.3 1745.2 870.5C1803.3 868.7 1861.7 861.3 1890.8 857.7L1920 854L1920 787L1890.8 788.8C1861.7 790.7 1803.3 794.3 1745.2 792.7C1687 791 1629 784 1570.8 787.7C1512.7 791.3 1454.3 805.7 1396.2 807.3C1338 809 1280 798 1221.8 790.8C1163.7 783.7 1105.3 780.3 1047.2 778.7C989 777 931 777 872.8 778.7C814.7 780.3 756.3 783.7 698.2 780C640 776.3 582 765.7 523.8 765.7C465.7 765.7 407.3 776.3 349.2 781.7C291 787 233 787 174.8 788.8C116.7 790.7 58.3 794.3 29.2 796.2L0 798Z" fill="#ff9db1"></path><path d="M0 984L29.2 987.5C58.3 991 116.7 998 174.8 1001.5C233 1005 291 1005 349.2 999.7C407.3 994.3 465.7 983.7 523.8 978.3C582 973 640 973 698.2 974.8C756.3 976.7 814.7 980.3 872.8 978.5C931 976.7 989 969.3 1047.2 969.3C1105.3 969.3 1163.7 976.7 1221.8 982.2C1280 987.7 1338 991.3 1396.2 993.2C1454.3 995 1512.7 995 1570.8 995C1629 995 1687 995 1745.2 991.3C1803.3 987.7 1861.7 980.3 1890.8 976.7L1920 973L1920 852L1890.8 855.7C1861.7 859.3 1803.3 866.7 1745.2 868.5C1687 870.3 1629 866.7 1570.8 870.2C1512.7 873.7 1454.3 884.3 1396.2 888C1338 891.7 1280 888.3 1221.8 881.2C1163.7 874 1105.3 863 1047.2 855.7C989 848.3 931 844.7 872.8 844.7C814.7 844.7 756.3 848.3 698.2 850.2C640 852 582 852 523.8 857.5C465.7 863 407.3 874 349.2 875.8C291 877.7 233 870.3 174.8 868.5C116.7 866.7 58.3 870.3 29.2 872.2L0 874Z" fill="#ff96ab"></path><path d="M0 1081L29.2 1081C58.3 1081 116.7 1081 174.8 1081C233 1081 291 1081 349.2 1081C407.3 1081 465.7 1081 523.8 1081C582 1081 640 1081 698.2 1081C756.3 1081 814.7 1081 872.8 1081C931 1081 989 1081 1047.2 1081C1105.3 1081 1163.7 1081 1221.8 1081C1280 1081 1338 1081 1396.2 1081C1454.3 1081 1512.7 1081 1570.8 1081C1629 1081 1687 1081 1745.2 1081C1803.3 1081 1861.7 1081 1890.8 1081L1920 1081L1920 971L1890.8 974.7C1861.7 978.3 1803.3 985.7 1745.2 989.3C1687 993 1629 993 1570.8 993C1512.7 993 1454.3 993 1396.2 991.2C1338 989.3 1280 985.7 1221.8 980.2C1163.7 974.7 1105.3 967.3 1047.2 967.3C989 967.3 931 974.7 872.8 976.5C814.7 978.3 756.3 974.7 698.2 972.8C640 971 582 971 523.8 976.3C465.7 981.7 407.3 992.3 349.2 997.7C291 1003 233 1003 174.8 999.5C116.7 996 58.3 989 29.2 985.5L0 982Z" fill="#ff8ea5"></path></svg>