<svg id="visual" viewBox="0 0 1000 1500" width="1000" height="1500" xmlns="http://www.w3.org/2000/svg" xmlns:xlink="http://www.w3.org/1999/xlink" version="1.1"><path d="M0 91L15.2 91C30.3 91 60.7 91 91 91C121.3 91 151.7 91 182 88.5C212.3 86 242.7 81 273 81C303.3 81 333.7 86 364 91C394.3 96 424.7 101 454.8 98.5C485 96 515 86 545.2 81C575.3 76 605.7 76 636 81C666.3 86 696.7 96 727 101C757.3 106 787.7 106 818 103.5C848.3 101 878.7 96 909 96C939.3 96 969.7 101 984.8 103.5L1000 106L1000 0L984.8 0C969.7 0 939.3 0 909 0C878.7 0 848.3 0 818 0C787.7 0 757.3 0 727 0C696.7 0 666.3 0 636 0C605.7 0 575.3 0 545.2 0C515 0 485 0 454.8 0C424.7 0 394.3 0 364 0C333.7 0 303.3 0 273 0C242.7 0 212.3 0 182 0C151.7 0 121.3 0 91 0C60.7 0 30.3 0 15.2 0L0 0Z" fill="#ffc4d1"></path><path d="M0 286L15.2 293.5C30.3 301 60.7 316 91 321C121.3 326 151.7 321 182 306C212.3 291 242.7 266 273 268.5C303.3 271 333.7 301 364 311C394.3 321 424.7 311 454.8 296C485 281 515 261 545.2 256C575.3 251 605.7 261 636 278.5C666.3 296 696.7 321 727 331C757.3 341 787.7 336 818 333.5C848.3 331 878.7 331 909 331C939.3 331 969.7 331 984.8 331L1000 331L1000 104L984.8 101.5C969.7 99 939.3 94 909 94C878.7 94 848.3 99 818 101.5C787.7 104 757.3 104 727 99C696.7 94 666.3 84 636 79C605.7 74 575.3 74 545.2 79C515 84 485 94 454.8 96.5C424.7 99 394.3 94 364 89C333.7 84 303.3 79 273 79C242.7 79 212.3 84 182 86.5C151.7 89 121.3 89 91 89C60.7 89 30.3 89 15.2 89L0 89Z" fill="#ffbccb"></path><path d="M0 376L15.2 388.5C30.3 401 60.7 426 91 436C121.3 446 151.7 441 182 423.5C212.3 406 242.7 376 273 378.5C303.3 381 333.7 416 364 423.5C394.3 431 424.7 411 454.8 396C485 381 515 371 545.2 366C575.3 361 605.7 361 636 376C666.3 391 696.7 421 727 436C757.3 451 787.7 451 818 446C848.3 441 878.7 431 909 431C939.3 431 969.7 441 984.8 446L1000 451L1000 329L984.8 329C969.7 329 939.3 329 909 329C878.7 329 848.3 329 818 331.5C787.7 334 757.3 339 727 329C696.7 319 666.3 294 636 276.5C605.7 259 575.3 249 545.2 254C515 259 485 279 454.8 294C424.7 309 394.3 319 364 309C333.7 299 303.3 269 273 266.5C242.7 264 212.3 289 182 304C151.7 319 121.3 324 91 319C60.7 314 30.3 299 15.2 291.5L0 284Z" fill="#ffb4c4"></path><path d="M0 721L15.2 728.5C30.3 736 60.7 751 91 761C121.3 771 151.7 776 182 776C212.3 776 242.7 771 273 771C303.3 771 333.7 776 364 776C394.3 776 424.7 771 454.8 766C485 761 515 756 545.2 743.5C575.3 731 605.7 711 636 721C666.3 731 696.7 771 727 778.5C757.3 786 787.7 761 818 766C848.3 771 878.7 806 909 818.5C939.3 831 969.7 821 984.8 816L1000 811L1000 449L984.8 444C969.7 439 939.3 429 909 429C878.7 429 848.3 439 818 444C787.7 449 757.3 449 727 434C696.7 419 666.3 389 636 374C605.7 359 575.3 359 545.2 364C515 369 485 379 454.8 394C424.7 409 394.3 429 364 421.5C333.7 414 303.3 379 273 376.5C242.7 374 212.3 404 182 421.5C151.7 439 121.3 444 91 434C60.7 424 30.3 399 15.2 386.5L0 374Z" fill="#ffacbd"></path><path d="M0 1111L15.2 1108.5C30.3 1106 60.7 1101 91 1098.5C121.3 1096 151.7 1096 182 1088.5C212.3 1081 242.7 1066 273 1066C303.3 1066 333.7 1081 364 1086C394.3 1091 424.7 1086 454.8 1083.5C485 1081 515 1081 545.2 1083.5C575.3 1086 605.7 1091 636 1101C666.3 1111 696.7 1126 727 1123.5C757.3 1121 787.7 1101 818 1096C848.3 1091 878.7 1101 909 1103.5C939.3 1106 969.7 1101 984.8 1098.5L1000 1096L1000 809L984.8 814C969.7 819 939.3 829 909 816.5C878.7 804 848.3 769 818 764C787.7 759 757.3 784 727 776.5C696.7 769 666.3 729 636 719C605.7 709 575.3 729 545.2 741.5C515 754 485 759 454.8 764C424.7 769 394.3 774 364 774C333.7 774 303.3 769 273 769C242.7 769 212.3 774 182 774C151.7 774 121.3 769 91 759C60.7 749 30.3 734 15.2 726.5L0 719Z" fill="#ffa4b7"></path><path d="M0 1216L15.2 1213.5C30.3 1211 60.7 1206 91 1208.5C121.3 1211 151.7 1221 182 1218.5C212.3 1216 242.7 1201 273 1193.5C303.3 1186 333.7 1186 364 1183.5C394.3 1181 424.7 1176 454.8 1176C485 1176 515 1181 545.2 1191C575.3 1201 605.7 1216 636 1226C666.3 1236 696.7 1241 727 1236C757.3 1231 787.7 1216 818 1211C848.3 1206 878.7 1211 909 1208.5C939.3 1206 969.7 1196 984.8 1191L1000 1186L1000 1094L984.8 1096.5C969.7 1099 939.3 1104 909 1101.5C878.7 1099 848.3 1089 818 1094C787.7 1099 757.3 1119 727 1121.5C696.7 1124 666.3 1109 636 1099C605.7 1089 575.3 1084 545.2 1081.5C515 1079 485 1079 454.8 1081.5C424.7 1084 394.3 1089 364 1084C333.7 1079 303.3 1064 273 1064C242.7 1064 212.3 1079 182 1086.5C151.7 1094 121.3 1094 91 1096.5C60.7 1099 30.3 1104 15.2 1106.5L0 1109Z" fill="#ff9db1"></path><path d="M0 1366L15.2 1371C30.3 1376 60.7 1386 91 1391C121.3 1396 151.7 1396 182 1388.5C212.3 1381 242.7 1366 273 1358.5C303.3 1351 333.7 1351 364 1353.5C394.3 1356 424.7 1361 454.8 1358.5C485 1356 515 1346 545.2 1346C575.3 1346 605.7 1356 636 1363.5C666.3 1371 696.7 1376 727 1378.5C757.3 1381 787.7 1381 818 1381C848.3 1381 878.7 1381 909 1376C939.3 1371 969.7 1361 984.8 1356L1000 1351L1000 1184L984.8 1189C969.7 1194 939.3 1204 909 1206.5C878.7 1209 848.3 1204 818 1209C787.7 1214 757.3 1229 727 1234C696.7 1239 666.3 1234 636 1224C605.7 1214 575.3 1199 545.2 1189C515 1179 485 1174 454.8 1174C424.7 1174 394.3 1179 364 1181.5C333.7 1184 303.3 1184 273 1191.5C242.7 1199 212.3 1214 182 1216.5C151.7 1219 121.3 1209 91 1206.5C60.7 1204 30.3 1209 15.2 1211.5L0 1214Z" fill="#ff96ab"></path><path d="M0 1501L15.2 1501C30.3 1501 60.7 1501 91 1501C121.3 1501 151.7 1501 182 1501C212.3 1501 242.7 1501 273 1501C303.3 1501 333.7 1501 364 1501C394.3 1501 424.7 1501 454.8 1501C485 1501 515 1501 545.2 1501C575.3 1501 605.7 1501 636 1501C666.3 1501 696.7 1501 727 1501C757.3 1501 787.7 1501 818 1501C848.3 1501 878.7 1501 909 1501C939.3 1501 969.7 1501 984.8 1501L1000 1501L1000 1349L984.8 1354C969.7 1359 939.3 1369 909 1374C878.7 1379 848.3 1379 818 1379C787.7 1379 757.3 1379 727 1376.5C696.7 1374 666.3 1369 636 1361.5C605.7 1354 575.3 1344 545.2 1344C515 1344 485 1354 454.8 1356.5C424.7 1359 394.3 1354 364 1351.5C333.7 1349 303.3 1349 273 1356.5C242.7 1364 212.3 1379 182 1386.5C151.7 1394 121.3 1394 91 1389C60.7 1384 30.3 1374 15.2 1369L0 1364Z" fill="#ff8ea5"></path></svg>